<mxfile host="app.diagrams.net" modified="2020-09-13T13:51:36.366Z" agent="5.0 (Macintosh; Intel Mac OS X 10_15_5) AppleWebKit/537.36 (KHTML, like Gecko) Chrome/85.0.4183.83 Safari/537.36" etag="Xzvs9x06lq3ZlFIGohYD" version="13.6.9" type="github">
  <diagram id="WSQGmPrjaxnSa-IHcQLq" name="Page-1">
    <mxGraphModel dx="1426" dy="723" grid="1" gridSize="10" guides="1" tooltips="1" connect="1" arrows="1" fold="1" page="1" pageScale="1" pageWidth="827" pageHeight="1169" math="0" shadow="0">
      <root>
        <mxCell id="0" />
        <mxCell id="1" parent="0" />
        <mxCell id="wPPqD_61VLAjZl9I8UGk-5" style="edgeStyle=orthogonalEdgeStyle;rounded=0;orthogonalLoop=1;jettySize=auto;html=1;entryX=0.5;entryY=1;entryDx=0;entryDy=0;" edge="1" parent="1" source="wPPqD_61VLAjZl9I8UGk-1" target="wPPqD_61VLAjZl9I8UGk-3">
          <mxGeometry relative="1" as="geometry" />
        </mxCell>
        <mxCell id="wPPqD_61VLAjZl9I8UGk-6" style="edgeStyle=orthogonalEdgeStyle;rounded=0;orthogonalLoop=1;jettySize=auto;html=1;exitX=0.5;exitY=1;exitDx=0;exitDy=0;entryX=0.5;entryY=0;entryDx=0;entryDy=0;" edge="1" parent="1" source="wPPqD_61VLAjZl9I8UGk-1" target="wPPqD_61VLAjZl9I8UGk-4">
          <mxGeometry relative="1" as="geometry" />
        </mxCell>
        <mxCell id="wPPqD_61VLAjZl9I8UGk-1" value="地图" style="rounded=0;whiteSpace=wrap;html=1;" vertex="1" parent="1">
          <mxGeometry x="90" y="310" width="120" height="60" as="geometry" />
        </mxCell>
        <mxCell id="wPPqD_61VLAjZl9I8UGk-12" style="edgeStyle=orthogonalEdgeStyle;rounded=0;orthogonalLoop=1;jettySize=auto;html=1;exitX=1;exitY=0.5;exitDx=0;exitDy=0;entryX=0;entryY=0.5;entryDx=0;entryDy=0;" edge="1" parent="1" source="wPPqD_61VLAjZl9I8UGk-48" target="wPPqD_61VLAjZl9I8UGk-8">
          <mxGeometry relative="1" as="geometry" />
        </mxCell>
        <mxCell id="wPPqD_61VLAjZl9I8UGk-13" style="edgeStyle=orthogonalEdgeStyle;rounded=0;orthogonalLoop=1;jettySize=auto;html=1;entryX=0;entryY=0.5;entryDx=0;entryDy=0;" edge="1" parent="1" source="wPPqD_61VLAjZl9I8UGk-46" target="wPPqD_61VLAjZl9I8UGk-7">
          <mxGeometry relative="1" as="geometry" />
        </mxCell>
        <mxCell id="wPPqD_61VLAjZl9I8UGk-14" style="edgeStyle=orthogonalEdgeStyle;rounded=0;orthogonalLoop=1;jettySize=auto;html=1;entryX=0;entryY=0.5;entryDx=0;entryDy=0;" edge="1" parent="1" source="wPPqD_61VLAjZl9I8UGk-50" target="wPPqD_61VLAjZl9I8UGk-9">
          <mxGeometry relative="1" as="geometry" />
        </mxCell>
        <mxCell id="wPPqD_61VLAjZl9I8UGk-3" value="展示" style="rounded=0;whiteSpace=wrap;html=1;" vertex="1" parent="1">
          <mxGeometry x="90" y="130" width="120" height="60" as="geometry" />
        </mxCell>
        <mxCell id="wPPqD_61VLAjZl9I8UGk-55" style="edgeStyle=orthogonalEdgeStyle;rounded=0;sketch=0;orthogonalLoop=1;jettySize=auto;html=1;entryX=0;entryY=0.5;entryDx=0;entryDy=0;shadow=0;" edge="1" parent="1" source="wPPqD_61VLAjZl9I8UGk-4" target="wPPqD_61VLAjZl9I8UGk-16">
          <mxGeometry relative="1" as="geometry" />
        </mxCell>
        <mxCell id="wPPqD_61VLAjZl9I8UGk-57" style="edgeStyle=orthogonalEdgeStyle;rounded=0;sketch=0;orthogonalLoop=1;jettySize=auto;html=1;exitX=1;exitY=0.5;exitDx=0;exitDy=0;entryX=0;entryY=0.5;entryDx=0;entryDy=0;shadow=0;" edge="1" parent="1" source="wPPqD_61VLAjZl9I8UGk-4" target="wPPqD_61VLAjZl9I8UGk-17">
          <mxGeometry relative="1" as="geometry" />
        </mxCell>
        <mxCell id="wPPqD_61VLAjZl9I8UGk-58" style="edgeStyle=orthogonalEdgeStyle;rounded=0;sketch=0;orthogonalLoop=1;jettySize=auto;html=1;exitX=1;exitY=0.5;exitDx=0;exitDy=0;entryX=0;entryY=0.5;entryDx=0;entryDy=0;shadow=0;" edge="1" parent="1" source="wPPqD_61VLAjZl9I8UGk-4" target="wPPqD_61VLAjZl9I8UGk-18">
          <mxGeometry relative="1" as="geometry" />
        </mxCell>
        <mxCell id="wPPqD_61VLAjZl9I8UGk-4" value="编辑" style="rounded=0;whiteSpace=wrap;html=1;" vertex="1" parent="1">
          <mxGeometry x="90" y="470" width="120" height="60" as="geometry" />
        </mxCell>
        <mxCell id="wPPqD_61VLAjZl9I8UGk-65" style="edgeStyle=orthogonalEdgeStyle;rounded=0;sketch=0;orthogonalLoop=1;jettySize=auto;html=1;shadow=0;" edge="1" parent="1" source="wPPqD_61VLAjZl9I8UGk-7" target="wPPqD_61VLAjZl9I8UGk-64">
          <mxGeometry relative="1" as="geometry" />
        </mxCell>
        <mxCell id="wPPqD_61VLAjZl9I8UGk-7" value="展示设备信息" style="rounded=0;whiteSpace=wrap;html=1;" vertex="1" parent="1">
          <mxGeometry x="430" y="80" width="110" height="40" as="geometry" />
        </mxCell>
        <mxCell id="wPPqD_61VLAjZl9I8UGk-66" style="edgeStyle=orthogonalEdgeStyle;rounded=0;sketch=0;orthogonalLoop=1;jettySize=auto;html=1;entryX=0.5;entryY=1;entryDx=0;entryDy=0;shadow=0;" edge="1" parent="1" source="wPPqD_61VLAjZl9I8UGk-8" target="wPPqD_61VLAjZl9I8UGk-64">
          <mxGeometry relative="1" as="geometry" />
        </mxCell>
        <mxCell id="wPPqD_61VLAjZl9I8UGk-8" value="展示子地图信息" style="rounded=0;whiteSpace=wrap;html=1;" vertex="1" parent="1">
          <mxGeometry x="428" y="140" width="110" height="40" as="geometry" />
        </mxCell>
        <mxCell id="wPPqD_61VLAjZl9I8UGk-9" value="设备状态的实时显示" style="rounded=0;whiteSpace=wrap;html=1;" vertex="1" parent="1">
          <mxGeometry x="430" y="210" width="110" height="50" as="geometry" />
        </mxCell>
        <mxCell id="wPPqD_61VLAjZl9I8UGk-15" value="设备列表" style="rounded=0;whiteSpace=wrap;html=1;" vertex="1" parent="1">
          <mxGeometry x="750" y="470" width="87" height="40" as="geometry" />
        </mxCell>
        <mxCell id="wPPqD_61VLAjZl9I8UGk-16" value="选中效果" style="rounded=0;whiteSpace=wrap;html=1;" vertex="1" parent="1">
          <mxGeometry x="317" y="430" width="84" height="40" as="geometry" />
        </mxCell>
        <mxCell id="wPPqD_61VLAjZl9I8UGk-61" style="edgeStyle=orthogonalEdgeStyle;rounded=0;sketch=0;orthogonalLoop=1;jettySize=auto;html=1;exitX=1;exitY=0.5;exitDx=0;exitDy=0;shadow=0;" edge="1" parent="1" source="wPPqD_61VLAjZl9I8UGk-17" target="wPPqD_61VLAjZl9I8UGk-60">
          <mxGeometry relative="1" as="geometry" />
        </mxCell>
        <mxCell id="wPPqD_61VLAjZl9I8UGk-17" value="设备移动/缩放/旋转" style="rounded=0;whiteSpace=wrap;html=1;" vertex="1" parent="1">
          <mxGeometry x="318.5" y="500" width="77" height="40" as="geometry" />
        </mxCell>
        <mxCell id="wPPqD_61VLAjZl9I8UGk-63" style="edgeStyle=orthogonalEdgeStyle;rounded=0;sketch=0;orthogonalLoop=1;jettySize=auto;html=1;shadow=0;" edge="1" parent="1" source="wPPqD_61VLAjZl9I8UGk-18">
          <mxGeometry relative="1" as="geometry">
            <mxPoint x="520" y="570" as="targetPoint" />
          </mxGeometry>
        </mxCell>
        <mxCell id="wPPqD_61VLAjZl9I8UGk-18" value="子地图大小/位置设置" style="rounded=0;whiteSpace=wrap;html=1;" vertex="1" parent="1">
          <mxGeometry x="316" y="571" width="83" height="50" as="geometry" />
        </mxCell>
        <mxCell id="wPPqD_61VLAjZl9I8UGk-19" value="空间位置列表" style="rounded=0;whiteSpace=wrap;html=1;" vertex="1" parent="1">
          <mxGeometry x="750" y="560" width="90" height="40" as="geometry" />
        </mxCell>
        <mxCell id="wPPqD_61VLAjZl9I8UGk-20" value="设备展示" style="rounded=0;whiteSpace=wrap;html=1;" vertex="1" parent="1">
          <mxGeometry x="520" y="850" width="77" height="30" as="geometry" />
        </mxCell>
        <mxCell id="wPPqD_61VLAjZl9I8UGk-39" style="edgeStyle=orthogonalEdgeStyle;rounded=0;sketch=0;orthogonalLoop=1;jettySize=auto;html=1;entryX=0;entryY=0.5;entryDx=0;entryDy=0;shadow=0;" edge="1" parent="1" source="wPPqD_61VLAjZl9I8UGk-22" target="wPPqD_61VLAjZl9I8UGk-23">
          <mxGeometry relative="1" as="geometry" />
        </mxCell>
        <mxCell id="wPPqD_61VLAjZl9I8UGk-41" style="edgeStyle=orthogonalEdgeStyle;rounded=0;sketch=0;orthogonalLoop=1;jettySize=auto;html=1;entryX=1;entryY=0.5;entryDx=0;entryDy=0;shadow=0;" edge="1" parent="1" source="wPPqD_61VLAjZl9I8UGk-22" target="wPPqD_61VLAjZl9I8UGk-20">
          <mxGeometry relative="1" as="geometry" />
        </mxCell>
        <mxCell id="wPPqD_61VLAjZl9I8UGk-22" value="空间位置" style="rounded=0;whiteSpace=wrap;html=1;" vertex="1" parent="1">
          <mxGeometry x="680" y="770" width="80" height="40" as="geometry" />
        </mxCell>
        <mxCell id="wPPqD_61VLAjZl9I8UGk-23" value="拖拽" style="rounded=0;whiteSpace=wrap;html=1;" vertex="1" parent="1">
          <mxGeometry x="840" y="770" width="87" height="40" as="geometry" />
        </mxCell>
        <mxCell id="wPPqD_61VLAjZl9I8UGk-37" style="edgeStyle=orthogonalEdgeStyle;orthogonalLoop=1;jettySize=auto;html=1;entryX=0.5;entryY=0;entryDx=0;entryDy=0;rounded=0;sketch=0;shadow=0;dashed=1;" edge="1" parent="1" source="wPPqD_61VLAjZl9I8UGk-24" target="wPPqD_61VLAjZl9I8UGk-36">
          <mxGeometry relative="1" as="geometry" />
        </mxCell>
        <mxCell id="wPPqD_61VLAjZl9I8UGk-24" value="状态展示" style="rounded=0;whiteSpace=wrap;html=1;" vertex="1" parent="1">
          <mxGeometry x="520" y="960" width="80" height="30" as="geometry" />
        </mxCell>
        <mxCell id="wPPqD_61VLAjZl9I8UGk-38" style="edgeStyle=orthogonalEdgeStyle;rounded=0;sketch=0;orthogonalLoop=1;jettySize=auto;html=1;entryX=1;entryY=0.5;entryDx=0;entryDy=0;shadow=0;" edge="1" parent="1" source="wPPqD_61VLAjZl9I8UGk-25" target="wPPqD_61VLAjZl9I8UGk-20">
          <mxGeometry relative="1" as="geometry" />
        </mxCell>
        <mxCell id="wPPqD_61VLAjZl9I8UGk-25" value="设备图标" style="rounded=0;whiteSpace=wrap;html=1;" vertex="1" parent="1">
          <mxGeometry x="680" y="880" width="90" height="30" as="geometry" />
        </mxCell>
        <mxCell id="wPPqD_61VLAjZl9I8UGk-27" style="edgeStyle=orthogonalEdgeStyle;rounded=0;orthogonalLoop=1;jettySize=auto;html=1;entryX=1;entryY=0.5;entryDx=0;entryDy=0;" edge="1" parent="1" source="wPPqD_61VLAjZl9I8UGk-26" target="wPPqD_61VLAjZl9I8UGk-25">
          <mxGeometry relative="1" as="geometry" />
        </mxCell>
        <mxCell id="wPPqD_61VLAjZl9I8UGk-26" value="设备配置" style="rounded=0;whiteSpace=wrap;html=1;" vertex="1" parent="1">
          <mxGeometry x="927" y="900" width="90" height="40" as="geometry" />
        </mxCell>
        <mxCell id="wPPqD_61VLAjZl9I8UGk-34" style="edgeStyle=orthogonalEdgeStyle;rounded=0;orthogonalLoop=1;jettySize=auto;html=1;entryX=1;entryY=0.5;entryDx=0;entryDy=0;" edge="1" parent="1" source="wPPqD_61VLAjZl9I8UGk-28" target="wPPqD_61VLAjZl9I8UGk-24">
          <mxGeometry relative="1" as="geometry" />
        </mxCell>
        <mxCell id="wPPqD_61VLAjZl9I8UGk-28" value="事件分组&lt;span style=&quot;color: rgba(0 , 0 , 0 , 0) ; font-family: monospace ; font-size: 0px&quot;&gt;%3CmxGraphModel%3E%3Croot%3E%3CmxCell%20id%3D%220%22%2F%3E%3CmxCell%20id%3D%221%22%20parent%3D%220%22%2F%3E%3CmxCell%20id%3D%222%22%20value%3D%22%E6%8B%96%E6%8B%BD%22%20style%3D%22rounded%3D0%3BwhiteSpace%3Dwrap%3Bhtml%3D1%3B%22%20vertex%3D%221%22%20parent%3D%221%22%3E%3CmxGeometry%20x%3D%22837%22%20y%3D%22770%22%20width%3D%2290%22%20height%3D%2240%22%20as%3D%22geometry%22%2F%3E%3C%2FmxCell%3E%3C%2Froot%3E%3C%2FmxGraphModel%3E&lt;/span&gt;" style="rounded=0;whiteSpace=wrap;html=1;" vertex="1" parent="1">
          <mxGeometry x="680" y="960" width="80" height="30" as="geometry" />
        </mxCell>
        <mxCell id="wPPqD_61VLAjZl9I8UGk-31" style="edgeStyle=orthogonalEdgeStyle;rounded=0;orthogonalLoop=1;jettySize=auto;html=1;exitX=0.5;exitY=0;exitDx=0;exitDy=0;entryX=0.5;entryY=1;entryDx=0;entryDy=0;" edge="1" parent="1" source="wPPqD_61VLAjZl9I8UGk-32" target="wPPqD_61VLAjZl9I8UGk-28">
          <mxGeometry relative="1" as="geometry" />
        </mxCell>
        <mxCell id="wPPqD_61VLAjZl9I8UGk-30" value="事件配置&lt;span style=&quot;color: rgba(0 , 0 , 0 , 0) ; font-family: monospace ; font-size: 0px&quot;&gt;%3CmxGraphModel%3E%3Croot%3E%3CmxCell%20id%3D%220%22%2F%3E%3CmxCell%20id%3D%221%22%20parent%3D%220%22%2F%3E%3CmxCell%20id%3D%222%22%20value%3D%22%E6%8B%96%E6%8B%BD%22%20style%3D%22rounded%3D0%3BwhiteSpace%3Dwrap%3Bhtml%3D1%3B%22%20vertex%3D%221%22%20parent%3D%221%22%3E%3CmxGeometry%20x%3D%22837%22%20y%3D%22770%22%20width%3D%2290%22%20height%3D%2240%22%20as%3D%22geometry%22%2F%3E%3C%2FmxCell%3E%3C%2Froot%3E%3C%2FmxGraphModel%3E&lt;/span&gt;" style="rounded=0;whiteSpace=wrap;html=1;" vertex="1" parent="1">
          <mxGeometry x="680" y="1060" width="80" height="30" as="geometry" />
        </mxCell>
        <mxCell id="wPPqD_61VLAjZl9I8UGk-32" value="状态颜色" style="text;html=1;strokeColor=none;fillColor=none;align=center;verticalAlign=middle;whiteSpace=wrap;rounded=0;" vertex="1" parent="1">
          <mxGeometry x="695" y="1010" width="50" height="20" as="geometry" />
        </mxCell>
        <mxCell id="wPPqD_61VLAjZl9I8UGk-33" style="edgeStyle=orthogonalEdgeStyle;rounded=0;orthogonalLoop=1;jettySize=auto;html=1;exitX=0.5;exitY=0;exitDx=0;exitDy=0;entryX=0.5;entryY=1;entryDx=0;entryDy=0;" edge="1" parent="1" source="wPPqD_61VLAjZl9I8UGk-30" target="wPPqD_61VLAjZl9I8UGk-32">
          <mxGeometry relative="1" as="geometry">
            <mxPoint x="720" y="1040" as="sourcePoint" />
            <mxPoint x="720" y="990" as="targetPoint" />
          </mxGeometry>
        </mxCell>
        <mxCell id="wPPqD_61VLAjZl9I8UGk-35" value="状态种类" style="text;html=1;strokeColor=none;fillColor=none;align=center;verticalAlign=middle;whiteSpace=wrap;rounded=0;" vertex="1" parent="1">
          <mxGeometry x="610" y="950" width="60" height="20" as="geometry" />
        </mxCell>
        <mxCell id="wPPqD_61VLAjZl9I8UGk-36" value="特殊情况： 火警闪动" style="rounded=1;whiteSpace=wrap;html=1;" vertex="1" parent="1">
          <mxGeometry x="493.5" y="1060" width="133" height="30" as="geometry" />
        </mxCell>
        <mxCell id="wPPqD_61VLAjZl9I8UGk-42" value="" style="rounded=0;whiteSpace=wrap;html=1;dashed=1;fillColor=none;" vertex="1" parent="1">
          <mxGeometry x="660" y="760" width="120" height="60" as="geometry" />
        </mxCell>
        <mxCell id="wPPqD_61VLAjZl9I8UGk-43" value="" style="rounded=0;whiteSpace=wrap;html=1;dashed=1;fillColor=none;" vertex="1" parent="1">
          <mxGeometry x="660" y="940" width="120" height="60" as="geometry" />
        </mxCell>
        <mxCell id="wPPqD_61VLAjZl9I8UGk-44" value="空间位置服务" style="text;html=1;strokeColor=none;fillColor=none;align=center;verticalAlign=middle;whiteSpace=wrap;rounded=0;dashed=1;" vertex="1" parent="1">
          <mxGeometry x="740" y="730" width="90" height="20" as="geometry" />
        </mxCell>
        <mxCell id="wPPqD_61VLAjZl9I8UGk-45" value="事件服务" style="text;html=1;strokeColor=none;fillColor=none;align=center;verticalAlign=middle;whiteSpace=wrap;rounded=0;dashed=1;" vertex="1" parent="1">
          <mxGeometry x="737" y="920" width="90" height="20" as="geometry" />
        </mxCell>
        <mxCell id="wPPqD_61VLAjZl9I8UGk-46" value="台账" style="text;html=1;strokeColor=none;fillColor=none;align=center;verticalAlign=middle;whiteSpace=wrap;rounded=0;dashed=1;" vertex="1" parent="1">
          <mxGeometry x="304" y="90" width="66" height="20" as="geometry" />
        </mxCell>
        <mxCell id="wPPqD_61VLAjZl9I8UGk-47" style="edgeStyle=orthogonalEdgeStyle;rounded=0;orthogonalLoop=1;jettySize=auto;html=1;entryX=0;entryY=0.5;entryDx=0;entryDy=0;" edge="1" parent="1" source="wPPqD_61VLAjZl9I8UGk-3" target="wPPqD_61VLAjZl9I8UGk-46">
          <mxGeometry relative="1" as="geometry">
            <mxPoint x="210" y="160" as="sourcePoint" />
            <mxPoint x="304" y="100" as="targetPoint" />
          </mxGeometry>
        </mxCell>
        <mxCell id="wPPqD_61VLAjZl9I8UGk-48" value="空间位置" style="text;html=1;strokeColor=none;fillColor=none;align=center;verticalAlign=middle;whiteSpace=wrap;rounded=0;dashed=1;" vertex="1" parent="1">
          <mxGeometry x="300" y="150" width="70" height="20" as="geometry" />
        </mxCell>
        <mxCell id="wPPqD_61VLAjZl9I8UGk-49" style="edgeStyle=orthogonalEdgeStyle;rounded=0;orthogonalLoop=1;jettySize=auto;html=1;exitX=1;exitY=0.5;exitDx=0;exitDy=0;entryX=0;entryY=0.5;entryDx=0;entryDy=0;" edge="1" parent="1" source="wPPqD_61VLAjZl9I8UGk-3" target="wPPqD_61VLAjZl9I8UGk-48">
          <mxGeometry relative="1" as="geometry">
            <mxPoint x="210" y="160" as="sourcePoint" />
            <mxPoint x="428" y="160" as="targetPoint" />
          </mxGeometry>
        </mxCell>
        <mxCell id="wPPqD_61VLAjZl9I8UGk-50" value="事件" style="text;html=1;strokeColor=none;fillColor=none;align=center;verticalAlign=middle;whiteSpace=wrap;rounded=0;dashed=1;" vertex="1" parent="1">
          <mxGeometry x="304" y="225" width="40" height="20" as="geometry" />
        </mxCell>
        <mxCell id="wPPqD_61VLAjZl9I8UGk-51" style="edgeStyle=orthogonalEdgeStyle;rounded=0;orthogonalLoop=1;jettySize=auto;html=1;entryX=0;entryY=0.5;entryDx=0;entryDy=0;" edge="1" parent="1" source="wPPqD_61VLAjZl9I8UGk-3" target="wPPqD_61VLAjZl9I8UGk-50">
          <mxGeometry relative="1" as="geometry">
            <mxPoint x="210" y="160" as="sourcePoint" />
            <mxPoint x="430" y="235" as="targetPoint" />
          </mxGeometry>
        </mxCell>
        <mxCell id="wPPqD_61VLAjZl9I8UGk-53" value="地图列表" style="rounded=0;whiteSpace=wrap;html=1;fillColor=none;" vertex="1" parent="1">
          <mxGeometry x="745" y="140" width="90" height="30" as="geometry" />
        </mxCell>
        <mxCell id="wPPqD_61VLAjZl9I8UGk-54" value="基础设施列表" style="rounded=0;whiteSpace=wrap;html=1;" vertex="1" parent="1">
          <mxGeometry x="748" y="400" width="87" height="40" as="geometry" />
        </mxCell>
        <mxCell id="wPPqD_61VLAjZl9I8UGk-60" value="ui/ux的体验&lt;br&gt;ui/ux的绘制" style="shape=cylinder3;whiteSpace=wrap;html=1;boundedLbl=1;backgroundOutline=1;size=15;fillColor=none;" vertex="1" parent="1">
          <mxGeometry x="470" y="475" width="90" height="90" as="geometry" />
        </mxCell>
        <mxCell id="wPPqD_61VLAjZl9I8UGk-62" value="问题" style="text;html=1;strokeColor=none;fillColor=none;align=center;verticalAlign=middle;whiteSpace=wrap;rounded=0;" vertex="1" parent="1">
          <mxGeometry x="414" y="500" width="40" height="20" as="geometry" />
        </mxCell>
        <mxCell id="wPPqD_61VLAjZl9I8UGk-64" value="信息展现面板" style="rounded=1;whiteSpace=wrap;html=1;glass=1;" vertex="1" parent="1">
          <mxGeometry x="574" y="20" width="106" height="40" as="geometry" />
        </mxCell>
        <mxCell id="wPPqD_61VLAjZl9I8UGk-73" style="edgeStyle=orthogonalEdgeStyle;rounded=0;sketch=0;orthogonalLoop=1;jettySize=auto;html=1;exitX=0.5;exitY=0;exitDx=0;exitDy=0;shadow=0;" edge="1" parent="1" source="wPPqD_61VLAjZl9I8UGk-67" target="wPPqD_61VLAjZl9I8UGk-70">
          <mxGeometry relative="1" as="geometry" />
        </mxCell>
        <mxCell id="wPPqD_61VLAjZl9I8UGk-67" value="封装threejs绘制的服务" style="rounded=0;whiteSpace=wrap;html=1;glass=1;fillColor=none;" vertex="1" parent="1">
          <mxGeometry x="30" y="1070" width="140" height="60" as="geometry" />
        </mxCell>
        <mxCell id="wPPqD_61VLAjZl9I8UGk-74" style="edgeStyle=orthogonalEdgeStyle;rounded=0;sketch=0;orthogonalLoop=1;jettySize=auto;html=1;entryX=0;entryY=0.5;entryDx=0;entryDy=0;shadow=0;" edge="1" parent="1" source="wPPqD_61VLAjZl9I8UGk-70" target="wPPqD_61VLAjZl9I8UGk-71">
          <mxGeometry relative="1" as="geometry" />
        </mxCell>
        <mxCell id="wPPqD_61VLAjZl9I8UGk-70" value="调用threesj绘制的服务" style="rounded=0;whiteSpace=wrap;html=1;glass=1;fillColor=none;" vertex="1" parent="1">
          <mxGeometry x="30" y="940" width="140" height="60" as="geometry" />
        </mxCell>
        <mxCell id="wPPqD_61VLAjZl9I8UGk-71" value="组件" style="rounded=0;whiteSpace=wrap;html=1;glass=1;fillColor=none;" vertex="1" parent="1">
          <mxGeometry x="275" y="940" width="120" height="60" as="geometry" />
        </mxCell>
        <mxCell id="wPPqD_61VLAjZl9I8UGk-75" value="输入&lt;br&gt;输出调用" style="shape=cube;whiteSpace=wrap;html=1;boundedLbl=1;backgroundOutline=1;darkOpacity=0.05;darkOpacity2=0.1;rounded=1;glass=1;fillColor=none;" vertex="1" parent="1">
          <mxGeometry x="272" y="755" width="126" height="75" as="geometry" />
        </mxCell>
        <mxCell id="wPPqD_61VLAjZl9I8UGk-79" value="" style="edgeStyle=orthogonalEdgeStyle;rounded=0;sketch=0;orthogonalLoop=1;jettySize=auto;html=1;shadow=0;" edge="1" parent="1" source="wPPqD_61VLAjZl9I8UGk-77" target="wPPqD_61VLAjZl9I8UGk-75">
          <mxGeometry relative="1" as="geometry" />
        </mxCell>
        <mxCell id="wPPqD_61VLAjZl9I8UGk-77" value="提供api" style="text;html=1;strokeColor=none;fillColor=none;align=center;verticalAlign=middle;whiteSpace=wrap;rounded=0;glass=1;" vertex="1" parent="1">
          <mxGeometry x="297" y="870" width="75" height="30" as="geometry" />
        </mxCell>
        <mxCell id="wPPqD_61VLAjZl9I8UGk-78" style="edgeStyle=orthogonalEdgeStyle;rounded=0;sketch=0;orthogonalLoop=1;jettySize=auto;html=1;exitX=0.5;exitY=0;exitDx=0;exitDy=0;entryX=0.516;entryY=1.013;entryDx=0;entryDy=0;entryPerimeter=0;shadow=0;" edge="1" parent="1" source="wPPqD_61VLAjZl9I8UGk-71" target="wPPqD_61VLAjZl9I8UGk-77">
          <mxGeometry relative="1" as="geometry">
            <mxPoint x="335" y="940" as="sourcePoint" />
            <mxPoint x="335.0160000000001" y="835.9749999999999" as="targetPoint" />
          </mxGeometry>
        </mxCell>
      </root>
    </mxGraphModel>
  </diagram>
</mxfile>
